<svg id="visual" viewBox="0 0 1320 1200" width="1320" height="1200" xmlns="http://www.w3.org/2000/svg" xmlns:xlink="http://www.w3.org/1999/xlink" version="1.1"><rect x="0" y="0" width="1320" height="1200" fill="#e9f8f9"></rect><defs><linearGradient id="grad1_0" x1="9.1%" y1="0%" x2="100%" y2="100%"><stop offset="27.999999999999996%" stop-color="#4facf7" stop-opacity="1"></stop><stop offset="72%" stop-color="#4facf7" stop-opacity="1"></stop></linearGradient></defs><defs><linearGradient id="grad1_1" x1="9.1%" y1="0%" x2="100%" y2="100%"><stop offset="27.999999999999996%" stop-color="#4facf7" stop-opacity="1"></stop><stop offset="72%" stop-color="#6ac2f5" stop-opacity="1"></stop></linearGradient></defs><defs><linearGradient id="grad1_2" x1="9.1%" y1="0%" x2="100%" y2="100%"><stop offset="27.999999999999996%" stop-color="#91d6f3" stop-opacity="1"></stop><stop offset="72%" stop-color="#6ac2f5" stop-opacity="1"></stop></linearGradient></defs><defs><linearGradient id="grad1_3" x1="9.1%" y1="0%" x2="100%" y2="100%"><stop offset="27.999999999999996%" stop-color="#91d6f3" stop-opacity="1"></stop><stop offset="72%" stop-color="#bce8f3" stop-opacity="1"></stop></linearGradient></defs><defs><linearGradient id="grad1_4" x1="9.1%" y1="0%" x2="100%" y2="100%"><stop offset="27.999999999999996%" stop-color="#e9f8f9" stop-opacity="1"></stop><stop offset="72%" stop-color="#bce8f3" stop-opacity="1"></stop></linearGradient></defs><defs><linearGradient id="grad2_0" x1="0%" y1="0%" x2="90.9%" y2="100%"><stop offset="27.999999999999996%" stop-color="#4facf7" stop-opacity="1"></stop><stop offset="72%" stop-color="#4facf7" stop-opacity="1"></stop></linearGradient></defs><defs><linearGradient id="grad2_1" x1="0%" y1="0%" x2="90.9%" y2="100%"><stop offset="27.999999999999996%" stop-color="#6ac2f5" stop-opacity="1"></stop><stop offset="72%" stop-color="#4facf7" stop-opacity="1"></stop></linearGradient></defs><defs><linearGradient id="grad2_2" x1="0%" y1="0%" x2="90.9%" y2="100%"><stop offset="27.999999999999996%" stop-color="#6ac2f5" stop-opacity="1"></stop><stop offset="72%" stop-color="#91d6f3" stop-opacity="1"></stop></linearGradient></defs><defs><linearGradient id="grad2_3" x1="0%" y1="0%" x2="90.9%" y2="100%"><stop offset="27.999999999999996%" stop-color="#bce8f3" stop-opacity="1"></stop><stop offset="72%" stop-color="#91d6f3" stop-opacity="1"></stop></linearGradient></defs><defs><linearGradient id="grad2_4" x1="0%" y1="0%" x2="90.9%" y2="100%"><stop offset="27.999999999999996%" stop-color="#bce8f3" stop-opacity="1"></stop><stop offset="72%" stop-color="#e9f8f9" stop-opacity="1"></stop></linearGradient></defs><g transform="translate(1320, 0)"><path d="M0 758.2C-98.1 679.9 -196.2 601.6 -316.5 548.2C-436.8 494.8 -579.3 466.3 -656.6 379.1C-733.9 291.9 -746 145.9 -758.2 0L0 0Z" fill="#d3f0f5"></path><path d="M0 606.5C-78.5 543.9 -157 481.3 -253.2 438.6C-349.4 395.8 -463.4 373 -525.3 303.3C-587.1 233.5 -596.8 116.7 -606.5 0L0 0Z" fill="#a6dff2"></path><path d="M0 454.9C-58.9 407.9 -117.7 361 -189.9 328.9C-262.1 296.9 -347.6 279.8 -394 227.5C-440.3 175.1 -447.6 87.6 -454.9 0L0 0Z" fill="#7dcdf4"></path><path d="M0 303.3C-39.2 272 -78.5 240.6 -126.6 219.3C-174.7 197.9 -231.7 186.5 -262.6 151.6C-293.6 116.7 -298.4 58.4 -303.3 0L0 0Z" fill="#5ab8f7"></path><path d="M0 151.6C-19.6 136 -39.2 120.3 -63.3 109.6C-87.4 99 -115.9 93.3 -131.3 75.8C-146.8 58.4 -149.2 29.2 -151.6 0L0 0Z" fill="#4facf7"></path></g><g transform="translate(0, 1200)"><path d="M0 -758.2C89.6 -665.1 179.1 -572 300.5 -520.5C421.9 -468.9 575 -458.9 656.6 -379.1C738.2 -299.3 748.2 -149.6 758.2 0L0 0Z" fill="#d3f0f5"></path><path d="M0 -606.5C71.7 -532.1 143.3 -457.6 240.4 -416.4C337.5 -375.1 460 -367.1 525.3 -303.3C590.5 -239.4 598.5 -119.7 606.5 0L0 0Z" fill="#a6dff2"></path><path d="M0 -454.9C53.7 -399.1 107.5 -343.2 180.3 -312.3C253.1 -281.4 345 -275.3 394 -227.5C442.9 -179.6 448.9 -89.8 454.9 0L0 0Z" fill="#7dcdf4"></path><path d="M0 -303.3C35.8 -266 71.7 -228.8 120.2 -208.2C168.7 -187.6 230 -183.6 262.6 -151.6C295.3 -119.7 299.3 -59.9 303.3 0L0 0Z" fill="#5ab8f7"></path><path d="M0 -151.6C17.9 -133 35.8 -114.4 60.1 -104.1C84.4 -93.8 115 -91.8 131.3 -75.8C147.6 -59.9 149.6 -29.9 151.6 0L0 0Z" fill="#4facf7"></path></g></svg>